<?xml version="1.0" standalone="no"?><!DOCTYPE svg PUBLIC "-//W3C//DTD SVG 1.1//EN" "http://www.w3.org/Graphics/SVG/1.1/DTD/svg11.dtd"><svg t="1759333906849" class="icon" viewBox="0 0 1024 1024" version="1.1" xmlns="http://www.w3.org/2000/svg" p-id="6625" xmlns:xlink="http://www.w3.org/1999/xlink" width="200" height="200"><path d="M512 0l441.557333 256v512L512 1024 70.442667 768V256z m0 13.909333L80.938667 262.741333v497.664L512 1009.194667l431.061333-248.789334V262.741333zM377.173333 875.648l-247.509333-142.890667V291.242667L512 70.528l95.146667 54.912-380.8 221.653333v329.813334l247.125333 142.72z m268.757334-727.808l248.405333 143.402667v441.514666L512 953.472l-97.024-55.978667 382.677333-220.586666v-329.813334l-248.448-143.445333z m-91.178667 142.933333v122.410667l1.024 327.082667-29.482667 16.384-93.013333-53.290667 0.341333-290.176H382.208L381.866667 356.309333l145.578666-83.84z" p-id="6626"></path></svg>